<?xml version="1.0" encoding="UTF-8" standalone="no"?>
<svg
   xmlns:dc="http://purl.org/dc/elements/1.1/"
   xmlns:cc="http://creativecommons.org/ns#"
   xmlns:rdf="http://www.w3.org/1999/02/22-rdf-syntax-ns#"
   xmlns:svg="http://www.w3.org/2000/svg"
   xmlns="http://www.w3.org/2000/svg"
   viewBox="0 0 1066.6667 1066.6667"
   height="1066.6667"
   width="1066.6667"
   xml:space="preserve"
   id="svg2"
   version="1.1"><metadata
     id="metadata8"><rdf:RDF><cc:Work
         rdf:about=""><dc:format>image/svg+xml</dc:format><dc:type
           rdf:resource="http://purl.org/dc/dcmitype/StillImage" /></cc:Work></rdf:RDF></metadata><defs
     id="defs6"><clipPath
       id="clipPath18"
       clipPathUnits="userSpaceOnUse"><path
         id="path16"
         d="M 0,800 H 800 V 0 H 0 Z" /></clipPath></defs><g
     transform="matrix(1.3333333,0,0,-1.3333333,0,1066.6667)"
     id="g10"><g
       id="g12"><g
         clip-path="url(#clipPath18)"
         id="g14"><g
           transform="translate(207.1255,304.9033)"
           id="g20"><path
             id="path22"
             style="fill:#332d2b;fill-opacity:1;fill-rule:nonzero;stroke:none"
             d="m 0,0 c -8.531,-22.929 -17.814,-30.346 -20.973,-30.346 -3.159,0 -12.443,7.417 -20.973,30.346 -9.347,25.122 -14.494,58.895 -14.494,95.097 0,36.201 5.147,69.974 14.494,95.096 8.53,22.929 17.814,30.347 20.973,30.347 3.159,0 12.442,-7.418 20.973,-30.347 C 9.346,165.071 14.494,131.298 14.494,95.097 14.494,58.895 9.346,25.122 0,0 m 231.971,202.715 h 116.886 c 12.832,0 23.273,-10.44 23.273,-23.273 v -43.241 c -6.834,0.103 -13.933,0.246 -21.205,0.438 v 32.245 c 0,3.414 -2.793,6.207 -6.206,6.207 h -15.515 c -3.414,0 -6.207,-2.793 -6.207,-6.207 v -31.273 c -6.188,0.271 -12.411,0.584 -18.619,0.944 v 30.329 c 0,3.414 -2.793,6.207 -6.206,6.207 h -15.516 c -3.413,0 -6.206,-2.793 -6.206,-6.207 v -28.347 c -6.329,0.54 -12.555,1.142 -18.618,1.811 v 26.536 c 0,3.414 -2.793,6.207 -6.207,6.207 h -15.516 c -3.413,0 -6.206,-2.793 -6.206,-6.207 v -22.729 c -7.65,1.284 -14.775,2.726 -21.205,4.343 v 28.944 c 0,12.833 10.441,23.273 23.273,23.273 m 235.56,-53.219 h -19.568 c -5.688,0 -10.343,-4.655 -10.343,-10.344 v -2.903 c -7.655,-0.133 -20.086,-0.291 -35.493,-0.281 v 43.474 c 0,29.373 -23.897,53.27 -53.27,53.27 H 231.971 c -29.373,0 -53.27,-23.897 -53.27,-53.27 v -19.321 c -67.625,24.973 -150.474,73.456 -172.23,86.323 -12.325,7.087 -19.638,9.781 -27.444,9.781 -15.73,0 -37.94,-9.297 -54.419,-53.589 -10.79,-29.003 -16.733,-67.195 -16.733,-107.539 0,-40.344 5.943,-78.536 16.733,-107.54 16.479,-44.291 38.689,-53.588 54.419,-53.588 7.993,0 15.332,4.053 27.396,10.586 25.526,15.072 126.01,73.023 195.782,93.544 60.508,17.797 199.871,16.075 235.415,15.313 v -2.371 c 0,-5.688 4.655,-10.344 10.343,-10.344 h 19.568 c 5.689,0 10.344,4.656 10.344,10.344 v 88.111 c 0,5.689 -4.655,10.344 -10.344,10.344" /></g></g></g></g></svg>